<?xml version="1.0" encoding="utf-8"?>
<!-- Generator: Adobe Illustrator 21.1.0, SVG Export Plug-In . SVG Version: 6.00 Build 0)  -->
<svg version="1.1" xmlns="http://www.w3.org/2000/svg" xmlns:xlink="http://www.w3.org/1999/xlink" x="0px" y="0px" width="91.86px"
	 height="91.86px" viewBox="0 0 91.86 91.86" style="enable-background:new 0 0 91.86 91.86;" xml:space="preserve">
<style type="text/css">
	.st0{fill:#1F2628;}
	.st1{fill:none;stroke:#F2F2F2;stroke-miterlimit:10;}
	.st2{fill:url(#SVGID_3_);}
	.st3{opacity:0.8;}
	.st4{fill:none;stroke:#E6E6E6;stroke-miterlimit:10;}
	.st5{fill:#149EDB;}
	.st6{fill:#0DB2F0;}
	.st7{fill:#1ABCFA;}
	.st8{fill:#E4F6FF;}
	.st9{clip-path:url(#SVGID_7_);}
	.st10{fill:#96DEFF;}
	.st11{enable-background:new    ;}
	.st12{clip-path:url(#SVGID_9_);}
	.st13{fill:#FFFFFF;}
	.st14{clip-path:url(#SVGID_11_);}
	.st15{clip-path:url(#SVGID_13_);}
	.st16{fill:#CCE7FF;}
	.st17{fill:none;stroke:#1078FF;stroke-width:4.0909;stroke-linecap:round;stroke-linejoin:round;stroke-miterlimit:10;}
	.st18{fill:none;stroke:#1078FF;stroke-width:4.0909;stroke-linejoin:round;stroke-miterlimit:10;}
	.st19{fill:#319CD6;}
	.st20{fill:#55D8EF;}
	.st21{fill:#B1B4BF;}
	.st22{fill:#D2D6E3;}
	.st23{fill:#F2F4F9;}
	.st24{fill:#3A458F;}
	.st25{fill:#3A2370;}
	.st26{fill:#7E7F7F;}
	.st27{fill:#6F7070;}
	.st28{fill:#CCCCCC;}
	.st29{fill:#BCBBB8;}
	.st30{fill:#70B5E8;}
	.st31{fill:#52A5D8;}
	.st32{fill:#EFEFEF;}
	.st33{fill:#DDDDDD;}
	.st34{fill:#666666;}
	.st35{fill:#535454;}
	.st36{fill:#F94A46;}
	.st37{fill:#FFB70D;}
	.st38{fill:#92B620;}
	.st39{fill:#3094C6;}
	.st40{fill:#F9F9F9;}
	.st41{fill:none;stroke:#FFFFFF;stroke-linecap:round;stroke-linejoin:round;stroke-miterlimit:10;}
	.st42{fill:#00BAFF;}
	.st43{fill:#E0E0E0;}
	.st44{fill:#C0C0C0;}
	.st45{fill:#FF6838;}
	.st46{fill:#AE4E32;}
	.st47{fill:#4D4D4D;}
	.st48{fill:#333333;}
	.st49{fill:#1A1A1A;}
	.st50{fill:#35CCFF;}
	.st51{fill:#8CC63F;}
	.st52{fill:#FFDC00;}
	.st53{fill:#E24242;}
	.st54{fill:#111F35;}
	.st55{fill:#2D3A4C;}
	.st56{fill:#008CC3;}
	.st57{fill:#005C83;}
	.st58{fill:#00263F;}
	.st59{fill:#464655;}
	.st60{fill:#BEC8DC;}
	.st61{fill:#AFBBD0;}
	.st62{fill:#96A5B9;}
	.st63{fill:#E4EAF6;}
	.st64{fill:#FF6469;}
	.st65{fill-rule:evenodd;clip-rule:evenodd;fill:#3C8376;}
	.st66{fill-rule:evenodd;clip-rule:evenodd;fill:#FFFFFF;}
	.st67{fill-rule:evenodd;clip-rule:evenodd;fill:#F48245;}
	.st68{fill-rule:evenodd;clip-rule:evenodd;fill:#C96C38;}
	.st69{fill-rule:evenodd;clip-rule:evenodd;fill:#EDEDED;}
	.st70{fill-rule:evenodd;clip-rule:evenodd;fill:#BBBDBF;}
	.st71{fill-rule:evenodd;clip-rule:evenodd;fill:#2C2D2C;}
	.st72{fill-rule:evenodd;clip-rule:evenodd;fill:#56C4CF;}
	.st73{fill-rule:evenodd;clip-rule:evenodd;fill:#6C8BC6;}
	.st74{fill-rule:evenodd;clip-rule:evenodd;fill:#43525A;}
	.st75{fill-rule:evenodd;clip-rule:evenodd;fill:#D5CB70;}
	.st76{fill-rule:evenodd;clip-rule:evenodd;fill:#FFCA05;}
	.st77{fill-rule:evenodd;clip-rule:evenodd;fill:#929497;}
	.st78{fill-rule:evenodd;clip-rule:evenodd;fill:#A5CD39;}
	.st79{fill-rule:evenodd;clip-rule:evenodd;fill:#47A4AD;}
	.st80{fill-rule:evenodd;clip-rule:evenodd;fill:#7670B2;}
	.st81{fill-rule:evenodd;clip-rule:evenodd;fill:#A37275;}
	.st82{fill-rule:evenodd;clip-rule:evenodd;fill:#EF5B72;}
	.st83{fill-rule:evenodd;clip-rule:evenodd;fill:#F5928C;}
	.st84{fill-rule:evenodd;clip-rule:evenodd;fill:#231F20;}
	.st85{fill-rule:evenodd;clip-rule:evenodd;fill:#58595B;}
	.st86{fill:#67DCEF;}
	.st87{display:none;}
	.st88{display:inline;fill:none;stroke:#1F2628;stroke-width:0.8552;stroke-miterlimit:10;}
</style>
<g id="bmark">
</g>
<g id="bg">
</g>
<g id="Layer_1">
	<g>
		<circle class="st53" cx="45.93" cy="45.93" r="45.93"/>
		<rect x="16.39" y="23.5" class="st13" width="59.09" height="44.85"/>
		<g>
			<rect x="45.93" y="23.5" class="st43" width="29.54" height="44.85"/>
			<rect x="16.39" y="23.5" class="st43" width="59.09" height="5.77"/>
		</g>
		<rect x="45.93" y="23.5" class="st44" width="29.54" height="5.77"/>
		<g>
			<circle class="st45" cx="19.95" cy="26.39" r="1.6"/>
			<circle class="st45" cx="24.75" cy="26.39" r="1.6"/>
			<circle class="st45" cx="29.54" cy="26.39" r="1.6"/>
		</g>
		<path class="st57" d="M71.58,51.79l2.19-2.19c-1.25-1.79-2.82-3.35-4.61-4.61l-2.19,2.19c-1.56-1.01-3.31-1.75-5.18-2.15v-3.1
			c-1.06-0.19-2.15-0.29-3.26-0.29c-1.11,0-2.2,0.1-3.26,0.29v3.1c-1.88,0.4-3.63,1.14-5.18,2.15l-2.19-2.19
			c-1.79,1.25-3.35,2.82-4.61,4.61l2.19,2.19c-1.01,1.56-1.75,3.31-2.15,5.18h-3.1c-0.19,1.06-0.29,2.15-0.29,3.26
			c0,1.11,0.1,2.2,0.29,3.26h3.1c0.4,1.88,1.14,3.63,2.15,5.18l-2.19,2.19c1.25,1.79,2.82,3.35,4.61,4.61l2.19-2.19
			c1.56,1.01,3.31,1.75,5.18,2.15v3.1c1.06,0.19,2.15,0.29,3.26,0.29c1.11,0,2.2-0.1,3.26-0.29v-3.1c1.88-0.4,3.63-1.14,5.18-2.15
			l2.19,2.19c1.79-1.25,3.35-2.82,4.61-4.61l-2.19-2.19c1.01-1.56,1.75-3.31,2.15-5.18h3.1c0.19-1.06,0.29-2.15,0.29-3.26
			c0-1.11-0.1-2.2-0.29-3.26h-3.1C73.32,55.09,72.59,53.34,71.58,51.79z M58.53,67.09c-3.79,0-6.86-3.07-6.86-6.86
			c0-3.79,3.07-6.86,6.86-6.86s6.86,3.07,6.86,6.86C65.39,64.02,62.32,67.09,58.53,67.09z"/>
		<path class="st58" d="M76.83,63.49c0.19-1.06,0.29-2.15,0.29-3.26c0-1.11-0.1-2.2-0.29-3.26h-3.1c-0.4-1.88-1.14-3.63-2.15-5.18
			l2.19-2.19c-1.25-1.79-2.82-3.35-4.61-4.61l-2.19,2.19c-1.56-1.01-3.31-1.75-5.18-2.15v-3.1c-1.06-0.19-2.15-0.29-3.26-0.29
			c-0.07,0-0.14,0-0.22,0v11.72c0.07,0,0.14-0.01,0.22-0.01c3.79,0,6.86,3.07,6.86,6.86c0,3.79-3.07,6.86-6.86,6.86
			c-0.07,0-0.14,0-0.22-0.01v11.72c0.07,0,0.14,0,0.22,0c1.11,0,2.2-0.1,3.26-0.29v-3.1c1.88-0.4,3.63-1.14,5.18-2.15l2.19,2.19
			c1.79-1.25,3.35-2.82,4.61-4.61l-2.19-2.19c1.01-1.56,1.75-3.31,2.15-5.18L76.83,63.49L76.83,63.49z"/>
		<g>
			<path class="st57" d="M18.69,44.18l4.44-11.55h2.16l4.42,11.55h-2.83l-0.89-2.59h-3.59l-0.88,2.59H18.69z M24.2,35.46l-1.38,4.29
				h2.72L24.2,35.46z"/>
			<path class="st57" d="M30.77,44.18V32.63h4.93c0.55,0,1.06,0.11,1.52,0.34c0.46,0.23,0.86,0.53,1.19,0.89
				c0.33,0.37,0.59,0.79,0.78,1.25c0.19,0.47,0.28,0.94,0.28,1.41c0,0.51-0.09,1-0.27,1.46c-0.18,0.47-0.43,0.88-0.75,1.25
				c-0.32,0.37-0.71,0.66-1.16,0.88c-0.46,0.22-0.96,0.33-1.51,0.33h-2.34v3.72L30.77,44.18L30.77,44.18z M33.44,38.13h2.18
				c0.31,0,0.59-0.14,0.81-0.41c0.23-0.27,0.34-0.67,0.34-1.19c0-0.27-0.04-0.5-0.11-0.7c-0.07-0.2-0.17-0.36-0.28-0.49
				c-0.12-0.13-0.25-0.22-0.41-0.28c-0.15-0.06-0.3-0.09-0.46-0.09h-2.08L33.44,38.13L33.44,38.13z"/>
			<path class="st57" d="M40.85,44.18V32.63h2.67v11.55H40.85z"/>
		</g>
	</g>
</g>
<g id="Layer_4" class="st87">
</g>
</svg>
