<?xml version="1.0" encoding="utf-8"?>
<!-- Generator: Adobe Illustrator 21.1.0, SVG Export Plug-In . SVG Version: 6.00 Build 0)  -->
<svg version="1.1" xmlns="http://www.w3.org/2000/svg" xmlns:xlink="http://www.w3.org/1999/xlink" x="0px" y="0px"
	 width="128.06px" height="153.52px" viewBox="0 0 128.06 153.52" style="enable-background:new 0 0 128.06 153.52;"
	 xml:space="preserve">
<style type="text/css">
	.st0{fill:#1F2628;}
	.st1{fill:none;stroke:#F2F2F2;stroke-miterlimit:10;}
	.st2{fill:url(#SVGID_3_);}
	.st3{opacity:0.8;}
	.st4{fill:none;stroke:#E6E6E6;stroke-miterlimit:10;}
	.st5{fill:#149EDB;}
	.st6{fill:#0DB2F0;}
	.st7{fill:#1ABCFA;}
	.st8{fill:#E4F6FF;}
	.st9{clip-path:url(#SVGID_7_);}
	.st10{fill:#96DEFF;}
	.st11{enable-background:new    ;}
	.st12{clip-path:url(#SVGID_9_);}
	.st13{fill:#FFFFFF;}
	.st14{font-family:'Bebas';}
	.st15{font-size:38.5857px;}
	.st16{letter-spacing:-2.74;}
	.st17{letter-spacing:-2.6;}
	.st18{clip-path:url(#SVGID_11_);}
	.st19{clip-path:url(#SVGID_13_);}
	.st20{fill:#CCE7FF;}
	.st21{fill:none;stroke:#1078FF;stroke-width:4.0909;stroke-linecap:round;stroke-linejoin:round;stroke-miterlimit:10;}
	.st22{fill:none;stroke:#1078FF;stroke-width:4.0909;stroke-linejoin:round;stroke-miterlimit:10;}
	.st23{fill:#319CD6;}
	.st24{fill:#55D8EF;}
	.st25{fill:#B1B4BF;}
	.st26{fill:#D2D6E3;}
	.st27{fill:#F2F4F9;}
	.st28{fill:#3A458F;}
	.st29{fill:#3A2370;}
	.st30{fill:#7E7F7F;}
	.st31{fill:#6F7070;}
	.st32{fill:#CCCCCC;}
	.st33{fill:#BCBBB8;}
	.st34{fill:#70B5E8;}
	.st35{fill:#52A5D8;}
	.st36{fill:#EFEFEF;}
	.st37{fill:#DDDDDD;}
	.st38{fill:#666666;}
	.st39{fill:#535454;}
	.st40{fill:#F94A46;}
	.st41{fill:#FFB70D;}
	.st42{fill:#92B620;}
	.st43{fill:#3094C6;}
	.st44{fill:#F9F9F9;}
	.st45{fill:none;stroke:#FFFFFF;stroke-linecap:round;stroke-linejoin:round;stroke-miterlimit:10;}
	.st46{fill:#00BAFF;}
	.st47{fill:#E0E0E0;}
	.st48{fill:#C0C0C0;}
	.st49{fill:#FF6838;}
	.st50{fill:#AE4E32;}
	.st51{fill:#4D4D4D;}
	.st52{fill:#333333;}
	.st53{fill:#1A1A1A;}
	.st54{fill:#35CCFF;}
	.st55{fill:#8CC63F;}
	.st56{fill:#FFDC00;}
	.st57{fill:#E24242;}
	.st58{fill:#111F35;}
	.st59{fill:#2D3A4C;}
	.st60{fill:#008CC3;}
	.st61{fill:#005C83;}
	.st62{fill:#00263F;}
	.st63{fill:#464655;}
	.st64{fill:#BEC8DC;}
	.st65{fill:#AFBBD0;}
	.st66{fill:#96A5B9;}
	.st67{fill:#E4EAF6;}
	.st68{fill:#FF6469;}
	.st69{fill-rule:evenodd;clip-rule:evenodd;fill:#3C8376;}
	.st70{fill-rule:evenodd;clip-rule:evenodd;fill:#FFFFFF;}
	.st71{fill-rule:evenodd;clip-rule:evenodd;fill:#F48245;}
	.st72{fill-rule:evenodd;clip-rule:evenodd;fill:#C96C38;}
	.st73{fill-rule:evenodd;clip-rule:evenodd;fill:#EDEDED;}
	.st74{fill-rule:evenodd;clip-rule:evenodd;fill:#BBBDBF;}
	.st75{fill-rule:evenodd;clip-rule:evenodd;fill:#2C2D2C;}
	.st76{fill-rule:evenodd;clip-rule:evenodd;fill:#56C4CF;}
	.st77{fill-rule:evenodd;clip-rule:evenodd;fill:#6C8BC6;}
	.st78{fill-rule:evenodd;clip-rule:evenodd;fill:#43525A;}
	.st79{fill-rule:evenodd;clip-rule:evenodd;fill:#D5CB70;}
	.st80{fill-rule:evenodd;clip-rule:evenodd;fill:#FFCA05;}
	.st81{fill-rule:evenodd;clip-rule:evenodd;fill:#929497;}
	.st82{fill-rule:evenodd;clip-rule:evenodd;fill:#A5CD39;}
	.st83{fill-rule:evenodd;clip-rule:evenodd;fill:#47A4AD;}
	.st84{fill-rule:evenodd;clip-rule:evenodd;fill:#7670B2;}
	.st85{fill-rule:evenodd;clip-rule:evenodd;fill:#A37275;}
	.st86{fill-rule:evenodd;clip-rule:evenodd;fill:#EF5B72;}
	.st87{fill-rule:evenodd;clip-rule:evenodd;fill:#F5928C;}
	.st88{fill-rule:evenodd;clip-rule:evenodd;fill:#231F20;}
	.st89{fill-rule:evenodd;clip-rule:evenodd;fill:#58595B;}
	.st90{fill:#67DCEF;}
	.st91{display:none;}
	.st92{display:inline;fill:none;stroke:#1F2628;stroke-width:0.8552;stroke-miterlimit:10;}
</style>
<g id="bmark">
</g>
<g id="bg">
</g>
<g id="Layer_1">
	<g>
		<polygon class="st5" points="128.06,37.13 128.06,116.42 64.31,153.47 64.31,74.18 		"/>
		<polygon class="st6" points="64.22,74.16 64.22,153.52 0,116.44 0,37.08 		"/>
		<g>
			<text transform="matrix(0.9294 -0.5773 0 1 70.8266 144.22)" class="st13 st14 st15 st16">BOX</text>
		</g>
		<text transform="matrix(1 0.5774 0 1 3.3572 112.5159)" class="st13 st14 st15 st17">VSS </text>
		<polygon class="st7" points="128.03,37.08 96.13,55.62 64.22,74.16 32.11,55.62 0,37.08 31.9,18.54 63.81,0 95.92,18.54 		"/>
		<g>
			<polygon class="st8" points="42.5,60.73 42.5,84 42.4,83.94 41.04,81.42 39.66,82.36 39.47,82.25 38.1,79.72 36.72,80.67 
				36.53,80.56 35.17,78.03 33.78,78.98 33.6,78.87 32.23,76.33 30.84,77.28 30.67,77.18 29.29,74.64 27.91,75.59 27.73,75.49 
				26.36,72.94 24.97,73.9 24.88,73.85 24.88,50.58 88.63,14.26 106.63,24.73 			"/>
		</g>
		<g>
			<defs>
				<polygon id="SVGID_10_" points="24.61,50.75 41.8,60.4 49.35,72.56 46.42,91.44 15.8,76.76 18.31,58.72 				"/>
			</defs>
			<clipPath id="SVGID_2_">
				<use xlink:href="#SVGID_10_"  style="overflow:visible;"/>
			</clipPath>
			<g style="clip-path:url(#SVGID_2_);">
				<polygon class="st10" points="42.5,60.74 42.5,84.01 42.4,83.95 41.04,81.43 39.66,82.37 39.47,82.26 38.1,79.73 36.72,80.68 
					36.53,80.57 35.17,78.04 33.78,78.98 33.6,78.88 32.23,76.34 30.84,77.29 30.67,77.19 29.29,74.65 27.91,75.6 27.73,75.5 
					26.36,72.95 24.97,73.9 24.88,73.86 24.88,50.59 90.26,12.62 108.04,22.9 				"/>
			</g>
		</g>
		<g>
			<g>
				<g class="st11">
					<defs>
						<polygon id="SVGID_12_" class="st11" points="96.53,80.8 96.48,63.49 121.66,48.95 121.71,66.26 						"/>
					</defs>
					<clipPath id="SVGID_3_">
						<use xlink:href="#SVGID_12_"  style="overflow:visible;"/>
					</clipPath>
					<g style="clip-path:url(#SVGID_3_);">
						<g>
							<g>
								<g>
									<path class="st13" d="M106.69,57.59c-3.38,1.95-6.1,6.68-6.09,10.56c0,0.29,0.02,0.57,0.05,0.84l-0.05,0.02
										c-2.27,1.31-4.1,4.48-4.09,7.08c0.01,2.6,1.85,3.65,4.12,2.34l18.16-10.49c1.61-0.93,2.91-3.18,2.9-5.02
										c-0.01-1.85-1.31-2.59-2.92-1.66l-0.04,0.02c0.23-0.75,0.36-1.5,0.36-2.21c-0.01-2.79-1.98-3.91-4.41-2.51
										c-0.86,0.5-1.66,1.24-2.33,2.12C111.44,56.66,109.25,56.12,106.69,57.59"/>
								</g>
							</g>
						</g>
					</g>
				</g>
			</g>
		</g>
	</g>
</g>
<g id="Layer_4" class="st91">
</g>
</svg>
