<?xml version="1.0" encoding="utf-8"?>
<!-- Generator: Adobe Illustrator 21.1.0, SVG Export Plug-In . SVG Version: 6.00 Build 0)  -->
<svg version="1.1" xmlns="http://www.w3.org/2000/svg" xmlns:xlink="http://www.w3.org/1999/xlink" x="0px" y="0px" width="91.86px"
	 height="91.86px" viewBox="0 0 91.86 91.86" style="enable-background:new 0 0 91.86 91.86;" xml:space="preserve">
<style type="text/css">
	.st0{fill:#1F2628;}
	.st1{fill:none;stroke:#F2F2F2;stroke-miterlimit:10;}
	.st2{fill:url(#SVGID_3_);}
	.st3{opacity:0.8;}
	.st4{fill:none;stroke:#E6E6E6;stroke-miterlimit:10;}
	.st5{fill:#149EDB;}
	.st6{fill:#0DB2F0;}
	.st7{fill:#1ABCFA;}
	.st8{fill:#E4F6FF;}
	.st9{clip-path:url(#SVGID_7_);}
	.st10{fill:#96DEFF;}
	.st11{enable-background:new    ;}
	.st12{clip-path:url(#SVGID_9_);}
	.st13{fill:#FFFFFF;}
	.st14{clip-path:url(#SVGID_11_);}
	.st15{clip-path:url(#SVGID_13_);}
	.st16{fill:#CCE7FF;}
	.st17{fill:none;stroke:#1078FF;stroke-width:4.0909;stroke-linecap:round;stroke-linejoin:round;stroke-miterlimit:10;}
	.st18{fill:none;stroke:#1078FF;stroke-width:4.0909;stroke-linejoin:round;stroke-miterlimit:10;}
	.st19{fill:#319CD6;}
	.st20{fill:#55D8EF;}
	.st21{fill:#B1B4BF;}
	.st22{fill:#D2D6E3;}
	.st23{fill:#F2F4F9;}
	.st24{fill:#3A458F;}
	.st25{fill:#3A2370;}
	.st26{fill:#7E7F7F;}
	.st27{fill:#6F7070;}
	.st28{fill:#CCCCCC;}
	.st29{fill:#BCBBB8;}
	.st30{fill:#70B5E8;}
	.st31{fill:#52A5D8;}
	.st32{fill:#EFEFEF;}
	.st33{fill:#DDDDDD;}
	.st34{fill:#666666;}
	.st35{fill:#535454;}
	.st36{fill:#F94A46;}
	.st37{fill:#FFB70D;}
	.st38{fill:#92B620;}
	.st39{fill:#3094C6;}
	.st40{fill:#F9F9F9;}
	.st41{fill:none;stroke:#FFFFFF;stroke-linecap:round;stroke-linejoin:round;stroke-miterlimit:10;}
	.st42{fill:#00BAFF;}
	.st43{fill:#E0E0E0;}
	.st44{fill:#C0C0C0;}
	.st45{fill:#FF6838;}
	.st46{fill:#AE4E32;}
	.st47{fill:#4D4D4D;}
	.st48{fill:#333333;}
	.st49{fill:#1A1A1A;}
	.st50{fill:#35CCFF;}
	.st51{fill:#8CC63F;}
	.st52{fill:#FFDC00;}
	.st53{fill:#E24242;}
	.st54{fill:#111F35;}
	.st55{fill:#2D3A4C;}
	.st56{fill:#008CC3;}
	.st57{fill:#005C83;}
	.st58{fill:#00263F;}
	.st59{fill:#464655;}
	.st60{fill:#BEC8DC;}
	.st61{fill:#AFBBD0;}
	.st62{fill:#96A5B9;}
	.st63{fill:#E4EAF6;}
	.st64{fill:#FF6469;}
	.st65{fill-rule:evenodd;clip-rule:evenodd;fill:#3C8376;}
	.st66{fill-rule:evenodd;clip-rule:evenodd;fill:#FFFFFF;}
	.st67{fill-rule:evenodd;clip-rule:evenodd;fill:#F48245;}
	.st68{fill-rule:evenodd;clip-rule:evenodd;fill:#C96C38;}
	.st69{fill-rule:evenodd;clip-rule:evenodd;fill:#EDEDED;}
	.st70{fill-rule:evenodd;clip-rule:evenodd;fill:#BBBDBF;}
	.st71{fill-rule:evenodd;clip-rule:evenodd;fill:#2C2D2C;}
	.st72{fill-rule:evenodd;clip-rule:evenodd;fill:#56C4CF;}
	.st73{fill-rule:evenodd;clip-rule:evenodd;fill:#6C8BC6;}
	.st74{fill-rule:evenodd;clip-rule:evenodd;fill:#43525A;}
	.st75{fill-rule:evenodd;clip-rule:evenodd;fill:#D5CB70;}
	.st76{fill-rule:evenodd;clip-rule:evenodd;fill:#FFCA05;}
	.st77{fill-rule:evenodd;clip-rule:evenodd;fill:#929497;}
	.st78{fill-rule:evenodd;clip-rule:evenodd;fill:#A5CD39;}
	.st79{fill-rule:evenodd;clip-rule:evenodd;fill:#47A4AD;}
	.st80{fill-rule:evenodd;clip-rule:evenodd;fill:#7670B2;}
	.st81{fill-rule:evenodd;clip-rule:evenodd;fill:#A37275;}
	.st82{fill-rule:evenodd;clip-rule:evenodd;fill:#EF5B72;}
	.st83{fill-rule:evenodd;clip-rule:evenodd;fill:#F5928C;}
	.st84{fill-rule:evenodd;clip-rule:evenodd;fill:#231F20;}
	.st85{fill-rule:evenodd;clip-rule:evenodd;fill:#58595B;}
	.st86{fill:#67DCEF;}
	.st87{display:none;}
	.st88{display:inline;fill:none;stroke:#1F2628;stroke-width:0.8552;stroke-miterlimit:10;}
</style>
<g id="bmark">
</g>
<g id="bg">
</g>
<g id="Layer_1">
	<g>
		<circle class="st53" cx="45.93" cy="45.93" r="45.93"/>
		<g>
			<path class="st59" d="M72.38,21.59h-52.9c-1.08,0-1.96,0.88-1.96,1.96V54.9h56.82V23.55C74.34,22.47,73.46,21.59,72.38,21.59z
				 M71.4,51.96H20.46V24.53H71.4V51.96z"/>
			<g>
				<path class="st13" d="M40.05,36.78c0.27,0,0.49,0.22,0.49,0.49h1.47V35.8h-1.96c-0.27,0-0.49-0.22-0.49-0.49
					c0-0.27,0.22-0.49,0.49-0.49h1.96v-6.37H33.2v8.82h6.37C39.56,37,39.78,36.78,40.05,36.78z"/>
				<path class="st13" d="M20.46,51.96H71.4V24.53H20.46V51.96z M42.01,49.51h-1.96c-0.27,0-0.49-0.22-0.49-0.49
					c0-0.27,0.22-0.49,0.49-0.49h1.96c0.27,0,0.49,0.22,0.49,0.49C42.5,49.29,42.28,49.51,42.01,49.51z M40.05,44.61
					c0.27,0,0.49,0.22,0.49,0.49v1.96c0,0.27-0.22,0.49-0.49,0.49s-0.49-0.22-0.49-0.49V45.1C39.56,44.83,39.78,44.61,40.05,44.61z
					 M39.56,43.14v-1.96c0-0.27,0.22-0.49,0.49-0.49s0.49,0.22,0.49,0.49v1.96c0,0.27-0.22,0.49-0.49,0.49S39.56,43.41,39.56,43.14z
					 M45.93,49.51h-1.96c-0.27,0-0.49-0.22-0.49-0.49c0-0.27,0.22-0.49,0.49-0.49h1.96c0.27,0,0.49,0.22,0.49,0.49
					C46.42,49.29,46.2,49.51,45.93,49.51z M54.26,47.06c0,0.27-0.22,0.49-0.49,0.49s-0.49-0.22-0.49-0.49V45.1
					c0-0.27,0.22-0.49,0.49-0.49s0.49,0.22,0.49,0.49V47.06z M54.26,43.14c0,0.27-0.22,0.49-0.49,0.49s-0.49-0.22-0.49-0.49v-1.96
					c0-0.27,0.22-0.49,0.49-0.49s0.49,0.22,0.49,0.49V43.14z M54.26,39.23c0,0.27-0.22,0.49-0.49,0.49s-0.49-0.22-0.49-0.49v-1.96
					c0-0.27,0.22-0.49,0.49-0.49s0.49,0.22,0.49,0.49V39.23z M58.67,40.21v-6.86v-5.88c0-0.54,0.44-0.98,0.98-0.98h8.82
					c0.54,0,0.98,0.44,0.98,0.98v5.88v6.86v8.82c0,0.54-0.44,0.98-0.98,0.98h-8.82c-0.54,0-0.98-0.44-0.98-0.98V40.21z M51.81,34.82
					h1.96c0.27,0,0.49,0.22,0.49,0.49c0,0.27-0.22,0.49-0.49,0.49h-1.96c-0.27,0-0.49-0.22-0.49-0.49
					C51.32,35.04,51.54,34.82,51.81,34.82z M51.81,48.53h1.96c0.27,0,0.49,0.22,0.49,0.49s-0.22,0.49-0.49,0.49h-1.96
					c-0.27,0-0.49-0.22-0.49-0.49S51.54,48.53,51.81,48.53z M47.89,34.82h1.96c0.27,0,0.49,0.22,0.49,0.49
					c0,0.27-0.22,0.49-0.49,0.49h-1.96c-0.27,0-0.49-0.22-0.49-0.49C47.4,35.04,47.62,34.82,47.89,34.82z M47.89,48.53h1.96
					c0.27,0,0.49,0.22,0.49,0.49s-0.22,0.49-0.49,0.49h-1.96c-0.27,0-0.49-0.22-0.49-0.49S47.62,48.53,47.89,48.53z M31.24,27.47
					c0-0.54,0.44-0.98,0.98-0.98h10.78c0.54,0,0.98,0.44,0.98,0.98v7.35h1.96c0.27,0,0.49,0.22,0.49,0.49
					c0,0.27-0.22,0.49-0.49,0.49h-1.96v2.45c0,0.11-0.02,0.21-0.05,0.3l2.57,2.3c0.21,0.19,0.16,0.54-0.1,0.65l-0.97,0.43l0.87,1.98
					c0.11,0.25,0,0.54-0.25,0.65c-0.06,0.03-0.13,0.04-0.2,0.04c-0.19,0-0.37-0.11-0.45-0.29l-0.87-1.98l-0.97,0.43
					c-0.26,0.11-0.55-0.08-0.55-0.37l0.04-3.17c-0.01,0-0.03,0-0.04,0h-2.45c0,0.27-0.22,0.49-0.49,0.49
					c-0.27,0-0.49-0.22-0.49-0.49h-7.35c-0.54,0-0.98-0.44-0.98-0.98L31.24,27.47L31.24,27.47z M22.42,27.47
					c0-0.54,0.44-0.98,0.98-0.98h2.94c0.54,0,0.98,0.44,0.98,0.98v21.55c0,0.54-0.44,0.98-0.98,0.98H23.4
					c-0.54,0-0.98-0.44-0.98-0.98V27.47z"/>
			</g>
			<path class="st60" d="M17.52,58.82c0,1.08,0.88,1.96,1.96,1.96h18.61h15.67h18.61c1.08,0,1.96-0.88,1.96-1.96V54.9H17.52V58.82z
				 M45.93,56.37c0.81,0,1.47,0.66,1.47,1.47s-0.66,1.47-1.47,1.47c-0.81,0-1.47-0.66-1.47-1.47S45.12,56.37,45.93,56.37z"/>
			<polygon class="st61" points="37.24,67.63 54.63,67.63 54.01,62.74 37.85,62.74 			"/>
			<path class="st60" d="M37.11,67.63c-0.54,0-0.98,0.44-0.98,0.98s0.44,0.98,0.98,0.98h17.63c0.54,0,0.98-0.44,0.98-0.98
				s-0.44-0.98-0.98-0.98h-0.12H37.24H37.11z"/>
			<g>
				<polygon class="st62" points="37.85,62.74 54.01,62.74 53.77,60.78 38.09,60.78 				"/>
				<circle class="st62" cx="45.93" cy="57.84" r="1.47"/>
			</g>
			<path class="st60" d="M23.4,50h2.94c0.54,0,0.98-0.44,0.98-0.98V27.47c0-0.54-0.44-0.98-0.98-0.98H23.4
				c-0.54,0-0.98,0.44-0.98,0.98v21.55C22.42,49.56,22.86,50,23.4,50z M24.38,28.45h0.98c0.54,0,0.98,0.44,0.98,0.98
				s-0.44,0.98-0.98,0.98h-0.98c-0.54,0-0.98-0.44-0.98-0.98C23.4,28.89,23.84,28.45,24.38,28.45z M24.38,31.39h0.98
				c0.54,0,0.98,0.44,0.98,0.98s-0.44,0.98-0.98,0.98h-0.98c-0.54,0-0.98-0.44-0.98-0.98C23.4,31.83,23.84,31.39,24.38,31.39z
				 M24.38,34.33h0.98c0.54,0,0.98,0.44,0.98,0.98c0,0.54-0.44,0.98-0.98,0.98h-0.98c-0.54,0-0.98-0.44-0.98-0.98
				C23.4,34.77,23.84,34.33,24.38,34.33z M24.38,37.27h0.98c0.54,0,0.98,0.44,0.98,0.98s-0.44,0.98-0.98,0.98h-0.98
				c-0.54,0-0.98-0.44-0.98-0.98S23.84,37.27,24.38,37.27z M24.38,40.21h0.98c0.54,0,0.98,0.44,0.98,0.98s-0.44,0.98-0.98,0.98
				h-0.98c-0.54,0-0.98-0.44-0.98-0.98S23.84,40.21,24.38,40.21z M23.4,45.1c0-0.54,0.44-0.98,0.98-0.98h0.98
				c0.54,0,0.98,0.44,0.98,0.98v1.96c0,0.54-0.44,0.98-0.98,0.98h-0.98c-0.54,0-0.98-0.44-0.98-0.98L23.4,45.1z"/>
			<path class="st63" d="M24.38,30.41h0.98c0.54,0,0.98-0.44,0.98-0.98s-0.44-0.98-0.98-0.98h-0.98c-0.54,0-0.98,0.44-0.98,0.98
				C23.4,29.97,23.84,30.41,24.38,30.41z"/>
			<path class="st62" d="M24.38,33.35h0.98c0.54,0,0.98-0.44,0.98-0.98s-0.44-0.98-0.98-0.98h-0.98c-0.54,0-0.98,0.44-0.98,0.98
				C23.4,32.91,23.84,33.35,24.38,33.35z"/>
			<g>
				<path class="st63" d="M24.38,36.29h0.98c0.54,0,0.98-0.44,0.98-0.98s-0.44-0.98-0.98-0.98h-0.98c-0.54,0-0.98,0.44-0.98,0.98
					S23.84,36.29,24.38,36.29z"/>
				<path class="st63" d="M24.38,39.23h0.98c0.54,0,0.98-0.44,0.98-0.98c0-0.54-0.44-0.98-0.98-0.98h-0.98
					c-0.54,0-0.98,0.44-0.98,0.98C23.4,38.79,23.84,39.23,24.38,39.23z"/>
				<path class="st63" d="M24.38,42.16h0.98c0.54,0,0.98-0.44,0.98-0.98c0-0.54-0.44-0.98-0.98-0.98h-0.98
					c-0.54,0-0.98,0.44-0.98,0.98C23.4,41.73,23.84,42.16,24.38,42.16z"/>
			</g>
			<path class="st62" d="M24.38,48.04h0.98c0.54,0,0.98-0.44,0.98-0.98V45.1c0-0.54-0.44-0.98-0.98-0.98h-0.98
				c-0.54,0-0.98,0.44-0.98,0.98v1.96C23.4,47.6,23.84,48.04,24.38,48.04z"/>
			<g>
				<path class="st60" d="M69.44,27.47c0-0.54-0.44-0.98-0.98-0.98h-8.82c-0.54,0-0.98,0.44-0.98,0.98v5.88h10.78L69.44,27.47
					L69.44,27.47z M67.97,32.37h-3.92h-0.98h-2.94c-0.27,0-0.49-0.22-0.49-0.49c0-0.27,0.22-0.49,0.49-0.49h2.94h0.98h3.92
					c0.27,0,0.49,0.22,0.49,0.49C68.46,32.15,68.24,32.37,67.97,32.37z M67.97,30.41h-0.98h-0.98h-5.88c-0.27,0-0.49-0.22-0.49-0.49
					c0-0.27,0.22-0.49,0.49-0.49h5.88h0.98h0.98c0.27,0,0.49,0.22,0.49,0.49C68.46,30.19,68.24,30.41,67.97,30.41z M67.97,28.45
					h-5.88h-0.98h-0.98c-0.27,0-0.49-0.22-0.49-0.49c0-0.27,0.22-0.49,0.49-0.49h0.98h0.98h5.88c0.27,0,0.49,0.22,0.49,0.49
					C68.46,28.23,68.24,28.45,67.97,28.45z"/>
				<path class="st60" d="M59.65,50h8.82c0.54,0,0.98-0.44,0.98-0.98v-8.82H58.67v8.82C58.67,49.56,59.1,50,59.65,50z M64.05,41.18
					h3.92c0.27,0,0.49,0.22,0.49,0.49c0,0.27-0.22,0.49-0.49,0.49h-3.92c-0.27,0-0.49-0.22-0.49-0.49
					C63.56,41.4,63.78,41.18,64.05,41.18z M64.05,43.14h3.92c0.27,0,0.49,0.22,0.49,0.49c0,0.27-0.22,0.49-0.49,0.49h-3.92
					c-0.27,0-0.49-0.22-0.49-0.49C63.56,43.36,63.78,43.14,64.05,43.14z M64.05,45.1h3.92c0.27,0,0.49,0.22,0.49,0.49
					c0,0.27-0.22,0.49-0.49,0.49h-3.92c-0.27,0-0.49-0.22-0.49-0.49C63.56,45.32,63.78,45.1,64.05,45.1z M64.05,47.06h3.92
					c0.27,0,0.49,0.22,0.49,0.49c0,0.27-0.22,0.49-0.49,0.49h-3.92c-0.27,0-0.49-0.22-0.49-0.49
					C63.56,47.28,63.78,47.06,64.05,47.06z M62.09,41.18L62.09,41.18c0.27,0,0.49,0.22,0.49,0.49c0,0.27-0.22,0.49-0.49,0.49l0,0
					c-0.27,0-0.49-0.22-0.49-0.49C61.6,41.4,61.82,41.18,62.09,41.18z M62.09,43.14L62.09,43.14c0.27,0,0.49,0.22,0.49,0.49
					c0,0.27-0.22,0.49-0.49,0.49l0,0c-0.27,0-0.49-0.22-0.49-0.49C61.6,43.36,61.82,43.14,62.09,43.14z M62.09,45.1L62.09,45.1
					c0.27,0,0.49,0.22,0.49,0.49c0,0.27-0.22,0.49-0.49,0.49l0,0c-0.27,0-0.49-0.22-0.49-0.49C61.6,45.32,61.82,45.1,62.09,45.1z
					 M62.09,47.06L62.09,47.06c0.27,0,0.49,0.22,0.49,0.49c0,0.27-0.22,0.49-0.49,0.49l0,0c-0.27,0-0.49-0.22-0.49-0.49
					C61.6,47.28,61.82,47.06,62.09,47.06z M60.14,41.18L60.14,41.18c0.27,0,0.49,0.22,0.49,0.49c0,0.27-0.22,0.49-0.49,0.49l0,0
					c-0.27,0-0.49-0.22-0.49-0.49C59.65,41.4,59.86,41.18,60.14,41.18z M60.14,43.14L60.14,43.14c0.27,0,0.49,0.22,0.49,0.49
					c0,0.27-0.22,0.49-0.49,0.49l0,0c-0.27,0-0.49-0.22-0.49-0.49C59.65,43.36,59.86,43.14,60.14,43.14z M60.14,45.1L60.14,45.1
					c0.27,0,0.49,0.22,0.49,0.49c0,0.27-0.22,0.49-0.49,0.49l0,0c-0.27,0-0.49-0.22-0.49-0.49C59.65,45.32,59.86,45.1,60.14,45.1z
					 M60.14,47.06L60.14,47.06c0.27,0,0.49,0.22,0.49,0.49c0,0.27-0.22,0.49-0.49,0.49l0,0c-0.27,0-0.49-0.22-0.49-0.49
					C59.65,47.28,59.86,47.06,60.14,47.06z"/>
			</g>
			<g>
				<path class="st62" d="M69.44,33.35H58.67v6.86h10.78V33.35z M61.12,39.23h-0.98c-0.27,0-0.49-0.22-0.49-0.49
					s0.22-0.49,0.49-0.49h0.98c0.27,0,0.49,0.22,0.49,0.49S61.39,39.23,61.12,39.23z M61.12,37.27h-0.98
					c-0.27,0-0.49-0.22-0.49-0.49c0-0.27,0.22-0.49,0.49-0.49h0.98c0.27,0,0.49,0.22,0.49,0.49C61.6,37.05,61.39,37.27,61.12,37.27z
					 M61.12,35.31h-0.98c-0.27,0-0.49-0.22-0.49-0.49s0.22-0.49,0.49-0.49h0.98c0.27,0,0.49,0.22,0.49,0.49S61.39,35.31,61.12,35.31
					z M67.97,39.23h-4.9c-0.27,0-0.49-0.22-0.49-0.49s0.22-0.49,0.49-0.49h4.9c0.27,0,0.49,0.22,0.49,0.49S68.24,39.23,67.97,39.23z
					 M67.97,37.27h-4.9c-0.27,0-0.49-0.22-0.49-0.49c0-0.27,0.22-0.49,0.49-0.49h4.9c0.27,0,0.49,0.22,0.49,0.49
					C68.46,37.05,68.24,37.27,67.97,37.27z M67.97,35.31h-4.9c-0.27,0-0.49-0.22-0.49-0.49s0.22-0.49,0.49-0.49h4.9
					c0.27,0,0.49,0.22,0.49,0.49S68.24,35.31,67.97,35.31z"/>
				<path class="st62" d="M67.97,27.47h-5.88c0.27,0,0.49,0.22,0.49,0.49c0,0.27-0.22,0.49-0.49,0.49h5.88
					c0.27,0,0.49-0.22,0.49-0.49C68.46,27.69,68.24,27.47,67.97,27.47z"/>
				<path class="st62" d="M60.63,27.96c0-0.27,0.22-0.49,0.49-0.49h-0.98c-0.27,0-0.49,0.22-0.49,0.49c0,0.27,0.22,0.49,0.49,0.49
					h0.98C60.84,28.45,60.63,28.23,60.63,27.96z"/>
				<path class="st62" d="M67.97,31.39h-3.92c0.27,0,0.49,0.22,0.49,0.49c0,0.27-0.22,0.49-0.49,0.49h3.92
					c0.27,0,0.49-0.22,0.49-0.49C68.46,31.61,68.24,31.39,67.97,31.39z"/>
				<path class="st62" d="M62.58,31.88c0-0.27,0.22-0.49,0.49-0.49h-2.94c-0.27,0-0.49,0.22-0.49,0.49c0,0.27,0.22,0.49,0.49,0.49
					h2.94C62.8,32.37,62.58,32.15,62.58,31.88z"/>
			</g>
			<path class="st60" d="M67.97,34.33h-4.9c-0.27,0-0.49,0.22-0.49,0.49s0.22,0.49,0.49,0.49h4.9c0.27,0,0.49-0.22,0.49-0.49
				S68.24,34.33,67.97,34.33z"/>
			<g>
				<path class="st62" d="M65.52,29.92c0-0.27,0.22-0.49,0.49-0.49h-5.88c-0.27,0-0.49,0.22-0.49,0.49c0,0.27,0.22,0.49,0.49,0.49
					h5.88C65.74,30.41,65.52,30.19,65.52,29.92z"/>
				<path class="st62" d="M67.97,29.43h-0.98c0.27,0,0.49,0.22,0.49,0.49c0,0.27-0.22,0.49-0.49,0.49h0.98
					c0.27,0,0.49-0.22,0.49-0.49C68.46,29.65,68.24,29.43,67.97,29.43z"/>
			</g>
			<g>
				<path class="st63" d="M62.58,27.96c0-0.27-0.22-0.49-0.49-0.49h-0.98c-0.27,0-0.49,0.22-0.49,0.49c0,0.27,0.22,0.49,0.49,0.49
					h0.98C62.37,28.45,62.58,28.23,62.58,27.96z"/>
				<path class="st63" d="M64.54,31.88c0-0.27-0.22-0.49-0.49-0.49h-0.98c-0.27,0-0.49,0.22-0.49,0.49c0,0.27,0.22,0.49,0.49,0.49
					h0.98C64.32,32.37,64.54,32.15,64.54,31.88z"/>
				<path class="st63" d="M61.12,34.33h-0.98c-0.27,0-0.49,0.22-0.49,0.49s0.22,0.49,0.49,0.49h0.98c0.27,0,0.49-0.22,0.49-0.49
					S61.39,34.33,61.12,34.33z"/>
			</g>
			<path class="st60" d="M67.97,36.29h-4.9c-0.27,0-0.49,0.22-0.49,0.49c0,0.27,0.22,0.49,0.49,0.49h4.9c0.27,0,0.49-0.22,0.49-0.49
				C68.46,36.51,68.24,36.29,67.97,36.29z"/>
			<path class="st63" d="M61.12,36.29h-0.98c-0.27,0-0.49,0.22-0.49,0.49c0,0.27,0.22,0.49,0.49,0.49h0.98
				c0.27,0,0.49-0.22,0.49-0.49C61.6,36.51,61.39,36.29,61.12,36.29z"/>
			<path class="st60" d="M67.97,38.25h-4.9c-0.27,0-0.49,0.22-0.49,0.49s0.22,0.49,0.49,0.49h4.9c0.27,0,0.49-0.22,0.49-0.49
				S68.24,38.25,67.97,38.25z"/>
			<g>
				<path class="st63" d="M61.12,38.25h-0.98c-0.27,0-0.49,0.22-0.49,0.49s0.22,0.49,0.49,0.49h0.98c0.27,0,0.49-0.22,0.49-0.49
					S61.39,38.25,61.12,38.25z"/>
				<path class="st63" d="M60.14,44.12L60.14,44.12c0.27,0,0.49-0.22,0.49-0.49c0-0.27-0.22-0.49-0.49-0.49l0,0
					c-0.27,0-0.49,0.22-0.49,0.49C59.65,43.9,59.86,44.12,60.14,44.12z"/>
				<path class="st63" d="M60.14,42.16L60.14,42.16c0.27,0,0.49-0.22,0.49-0.49s-0.22-0.49-0.49-0.49l0,0
					c-0.27,0-0.49,0.22-0.49,0.49S59.86,42.16,60.14,42.16z"/>
				<path class="st63" d="M60.14,48.04L60.14,48.04c0.27,0,0.49-0.22,0.49-0.49c0-0.27-0.22-0.49-0.49-0.49l0,0
					c-0.27,0-0.49,0.22-0.49,0.49C59.65,47.82,59.86,48.04,60.14,48.04z"/>
				<path class="st63" d="M60.14,46.08L60.14,46.08c0.27,0,0.49-0.22,0.49-0.49c0-0.27-0.22-0.49-0.49-0.49l0,0
					c-0.27,0-0.49,0.22-0.49,0.49C59.65,45.86,59.86,46.08,60.14,46.08z"/>
			</g>
			<g>
				<path class="st62" d="M62.09,44.12L62.09,44.12c0.27,0,0.49-0.22,0.49-0.49c0-0.27-0.22-0.49-0.49-0.49l0,0
					c-0.27,0-0.49,0.22-0.49,0.49C61.6,43.9,61.82,44.12,62.09,44.12z"/>
				<path class="st62" d="M62.09,42.16L62.09,42.16c0.27,0,0.49-0.22,0.49-0.49s-0.22-0.49-0.49-0.49l0,0
					c-0.27,0-0.49,0.22-0.49,0.49S61.82,42.16,62.09,42.16z"/>
				<path class="st62" d="M62.09,48.04L62.09,48.04c0.27,0,0.49-0.22,0.49-0.49c0-0.27-0.22-0.49-0.49-0.49l0,0
					c-0.27,0-0.49,0.22-0.49,0.49C61.6,47.82,61.82,48.04,62.09,48.04z"/>
				<path class="st62" d="M62.09,46.08L62.09,46.08c0.27,0,0.49-0.22,0.49-0.49c0-0.27-0.22-0.49-0.49-0.49l0,0
					c-0.27,0-0.49,0.22-0.49,0.49C61.6,45.86,61.82,46.08,62.09,46.08z"/>
				<path class="st62" d="M64.05,44.12h3.92c0.27,0,0.49-0.22,0.49-0.49c0-0.27-0.22-0.49-0.49-0.49h-3.92
					c-0.27,0-0.49,0.22-0.49,0.49C63.56,43.9,63.78,44.12,64.05,44.12z"/>
				<path class="st62" d="M64.05,42.16h3.92c0.27,0,0.49-0.22,0.49-0.49s-0.22-0.49-0.49-0.49h-3.92c-0.27,0-0.49,0.22-0.49,0.49
					S63.78,42.16,64.05,42.16z"/>
				<path class="st62" d="M64.05,48.04h3.92c0.27,0,0.49-0.22,0.49-0.49c0-0.27-0.22-0.49-0.49-0.49h-3.92
					c-0.27,0-0.49,0.22-0.49,0.49C63.56,47.82,63.78,48.04,64.05,48.04z"/>
				<path class="st62" d="M64.05,46.08h3.92c0.27,0,0.49-0.22,0.49-0.49c0-0.27-0.22-0.49-0.49-0.49h-3.92
					c-0.27,0-0.49,0.22-0.49,0.49C63.56,45.86,63.78,46.08,64.05,46.08z"/>
			</g>
			<path class="st63" d="M67.48,29.92c0-0.27-0.22-0.49-0.49-0.49h-0.98c-0.27,0-0.49,0.22-0.49,0.49c0,0.27,0.22,0.49,0.49,0.49
				h0.98C67.26,30.41,67.48,30.19,67.48,29.92z"/>
			<path class="st64" d="M32.22,39.23h7.35v-1.96H33.2v-8.82h8.82v6.37c0.27,0,0.49,0.22,0.49,0.49c0,0.27-0.22,0.49-0.49,0.49v1.47
				h-1.47v1.96h2.45c0.01,0,0.03,0,0.04,0l0.01-0.59c0-0.34,0.4-0.51,0.66-0.29l0.23,0.2c0.03-0.1,0.05-0.2,0.05-0.3V35.8
				c-0.27,0-0.49-0.22-0.49-0.49s0.22-0.49,0.49-0.49v-7.35c0-0.54-0.44-0.98-0.98-0.98H32.22c-0.54,0-0.98,0.44-0.98,0.98v10.78
				C31.24,38.79,31.68,39.23,32.22,39.23z"/>
			<g>
				<path class="st62" d="M40.05,43.63c0.27,0,0.49-0.22,0.49-0.49v-1.96c0-0.27-0.22-0.49-0.49-0.49s-0.49,0.22-0.49,0.49v1.96
					C39.56,43.41,39.78,43.63,40.05,43.63z"/>
				<path class="st62" d="M51.81,49.51h1.96c0.27,0,0.49-0.22,0.49-0.49c0-0.27-0.22-0.49-0.49-0.49h-1.96
					c-0.27,0-0.49,0.22-0.49,0.49C51.32,49.29,51.54,49.51,51.81,49.51z"/>
				<path class="st62" d="M53.77,44.61c-0.27,0-0.49,0.22-0.49,0.49v1.96c0,0.27,0.22,0.49,0.49,0.49s0.49-0.22,0.49-0.49V45.1
					C54.26,44.83,54.04,44.61,53.77,44.61z"/>
				<path class="st62" d="M51.81,35.8h1.96c0.27,0,0.49-0.22,0.49-0.49s-0.22-0.49-0.49-0.49h-1.96c-0.27,0-0.49,0.22-0.49,0.49
					C51.32,35.58,51.54,35.8,51.81,35.8z"/>
				<path class="st62" d="M53.77,36.78c-0.27,0-0.49,0.22-0.49,0.49v1.96c0,0.27,0.22,0.49,0.49,0.49s0.49-0.22,0.49-0.49v-1.96
					C54.26,37,54.04,36.78,53.77,36.78z"/>
				<path class="st62" d="M45.93,48.53h-1.96c-0.27,0-0.49,0.22-0.49,0.49s0.22,0.49,0.49,0.49h1.96c0.27,0,0.49-0.22,0.49-0.49
					S46.2,48.53,45.93,48.53z"/>
				<path class="st62" d="M40.05,36.78c-0.27,0-0.49,0.22-0.49,0.49v1.96c0,0.27,0.22,0.49,0.49,0.49s0.49-0.22,0.49-0.49v-1.96
					C40.54,37,40.32,36.78,40.05,36.78z"/>
				<path class="st62" d="M42.01,48.53h-1.96c-0.27,0-0.49,0.22-0.49,0.49s0.22,0.49,0.49,0.49h1.96c0.27,0,0.49-0.22,0.49-0.49
					S42.28,48.53,42.01,48.53z"/>
				<path class="st62" d="M39.56,47.06c0,0.27,0.22,0.49,0.49,0.49s0.49-0.22,0.49-0.49V45.1c0-0.27-0.22-0.49-0.49-0.49
					s-0.49,0.22-0.49,0.49V47.06z"/>
				<path class="st62" d="M53.77,40.69c-0.27,0-0.49,0.22-0.49,0.49v1.96c0,0.27,0.22,0.49,0.49,0.49s0.49-0.22,0.49-0.49v-1.96
					C54.26,40.91,54.04,40.69,53.77,40.69z"/>
				<path class="st62" d="M47.89,35.8h1.96c0.27,0,0.49-0.22,0.49-0.49s-0.22-0.49-0.49-0.49h-1.96c-0.27,0-0.49,0.22-0.49,0.49
					S47.62,35.8,47.89,35.8z"/>
				<path class="st62" d="M39.56,35.31c0,0.27,0.22,0.49,0.49,0.49h1.96c0.27,0,0.49-0.22,0.49-0.49s-0.22-0.49-0.49-0.49h-1.96
					C39.78,34.82,39.56,35.04,39.56,35.31z"/>
				<path class="st62" d="M47.89,49.51h1.96c0.27,0,0.49-0.22,0.49-0.49c0-0.27-0.22-0.49-0.49-0.49h-1.96
					c-0.27,0-0.49,0.22-0.49,0.49C47.4,49.29,47.62,49.51,47.89,49.51z"/>
				<path class="st62" d="M43.48,35.31c0,0.27,0.22,0.49,0.49,0.49h1.96c0.27,0,0.49-0.22,0.49-0.49s-0.22-0.49-0.49-0.49h-1.96
					C43.7,34.82,43.48,35.04,43.48,35.31z"/>
			</g>
			<path class="st59" d="M43.04,38.63l-0.01,0.59l-0.04,3.17c0,0.29,0.29,0.48,0.55,0.37l0.97-0.43l0.87,1.98
				c0.08,0.18,0.26,0.29,0.45,0.29c0.07,0,0.13-0.01,0.2-0.04c0.25-0.11,0.36-0.4,0.25-0.65l-0.87-1.98l0.97-0.43
				c0.26-0.11,0.32-0.46,0.1-0.65l-2.57-2.3l-0.23-0.2C43.45,38.12,43.05,38.3,43.04,38.63z"/>
		</g>
	</g>
</g>
<g id="Layer_4" class="st87">
</g>
</svg>
