<?xml version="1.0" encoding="utf-8"?>
<!-- Generator: Adobe Illustrator 21.1.0, SVG Export Plug-In . SVG Version: 6.00 Build 0)  -->
<svg version="1.1" id="Layer_1" xmlns="http://www.w3.org/2000/svg" xmlns:xlink="http://www.w3.org/1999/xlink" x="0px" y="0px"
	 width="128.1px" height="153.5px" viewBox="0 0 128.1 153.5" style="enable-background:new 0 0 128.1 153.5;" xml:space="preserve"
	>
<style type="text/css">
	.st0{fill:#149EDB;}
	.st1{fill:#0DB2F0;}
	.st2{enable-background:new    ;}
	.st3{fill:#FFFFFF;}
	.st4{fill:#1ABCFA;}
	.st5{fill:#E4F6FF;}
	.st6{clip-path:url(#SVGID_2_);}
	.st7{fill:#96DEFF;}
	.st8{clip-path:url(#SVGID_4_);}
	.st9{display:none;}
</style>
<g id="bmark">
</g>
<g id="bg">
</g>
<g id="Layer_1_1_">
	<g>
		<polygon class="st0" points="128.1,37.1 128.1,116.4 64.3,153.5 64.3,74.2 		"/>
		<polygon class="st1" points="64.2,74.2 64.2,153.5 0,116.4 0,37.1 		"/>
		<g>
			<g class="st2">
				<path class="st3" d="M72.5,143.2v-34.4l7.2-4.5c1.9-1.2,3.6-1.7,5.1-1.6c1.3,0.1,2.2,0.9,2.8,2.5c0.3,0.8,0.5,2,0.5,3.4
					c0,2.3-0.6,4.5-1.7,6.6c-0.5,0.9-1,1.7-1.7,2.4c1.1-0.2,2,0.1,2.7,0.9c0.5,0.6,0.9,1.5,1.1,2.7c0.1,0.6,0.2,1.4,0.2,2.3
					c0,2.2-0.4,4.3-1.1,6.2c-0.6,1.6-1.4,3-2.5,4.4c-1.2,1.6-2.4,2.7-3.6,3.5L72.5,143.2z M77.7,119.6l2-1.3c1.5-0.9,2.5-2.3,3-4.2
					c0.2-0.7,0.3-1.5,0.3-2.3c0-1.4-0.3-2.3-1-2.6c-0.6-0.3-1.4-0.2-2.3,0.4l-2,1.3V119.6z M77.7,134.8l2-1.3c1.6-1,2.8-2.6,3.4-4.8
					c0.2-0.8,0.3-1.5,0.3-2.3c0-1.9-0.3-3.1-1-3.6c-0.6-0.4-1.5-0.3-2.7,0.5l-2,1.3V134.8z"/>
				<path class="st3" d="M97.9,92.6c2.1-1.3,3.9-1.6,5.4-1c1.5,0.7,2.2,2.2,2.2,4.4v18.7c0,2.3-0.7,4.7-2.2,7.2
					c-1.5,2.5-3.3,4.4-5.4,5.8c-2.1,1.3-3.9,1.6-5.4,0.9c-1.5-0.7-2.2-2.2-2.2-4.4v-18.7c0-2.3,0.7-4.7,2.2-7.2
					C94,95.9,95.8,93.9,97.9,92.6z M100.5,99.1c0-0.8-0.3-1.4-0.8-1.6c-0.5-0.2-1.2-0.1-1.9,0.3s-1.4,1.2-2,2.1
					c-0.5,0.9-0.8,1.8-0.8,2.6v18.8c0,0.8,0.3,1.4,0.8,1.6c0.5,0.2,1.2,0.1,2-0.4s1.4-1.2,1.9-2.1c0.5-0.9,0.8-1.8,0.8-2.6V99.1z"/>
				<path class="st3" d="M122.8,111.9l-5.2,3.2l-3.7-8.6l-3.7,13.2l-5.2,3.2l6.3-21.2l-6.3-13.2l5.3-3.3l3.6,8.4l3.5-12.8l5.3-3.3
					l-6.3,21L122.8,111.9z"/>
			</g>
		</g>
		<g class="st2">
			<path class="st3" d="M11.3,117.1L5.1,79.2l5.4,3.1l4.3,29.3l4.3-24.3l5.4,3.1l-6.2,30.7L11.3,117.1z"/>
			<path class="st3" d="M41.6,126.1c0,2.4-0.6,4.1-1.9,5.1c-0.8,0.7-2,0.8-3.6,0.4c-0.8-0.2-1.8-0.6-2.9-1.3c-2-1.2-3.7-2.6-5-4.4
				c-1.1-1.5-2-3.1-2.6-4.9c-0.6-1.8-1-3.6-1.1-5.5l4.9,2.5c0.2,2.1,0.7,3.9,1.6,5.3c0.6,1,1.3,1.8,2.1,2.2c1.1,0.6,2,0.6,2.7-0.1
				c0.3-0.3,0.5-1,0.5-2c0-1.4-0.6-3.2-1.9-5.4c-1-1.6-2.6-3.9-4.6-7c-1.7-2.7-2.9-4.8-3.6-6.6c-0.8-1.9-1.2-3.8-1.2-5.5
				c0-3.1,1.1-4.9,3.2-5.3c1.3-0.2,2.9,0.2,4.8,1.3c1.8,1.1,3.4,2.4,4.7,4c1,1.2,1.8,2.6,2.5,4.1c0.6,1.5,1,3.1,1.1,4.6l-5-2
				c-0.1-1.5-0.5-2.8-1.2-4c-0.5-0.8-1.2-1.5-2.1-2c-0.9-0.5-1.7-0.5-2.2,0c-0.4,0.4-0.6,1.2-0.6,2.2c0,1.6,0.7,3.6,2,6
				c0.5,0.9,1.3,2.1,2.3,3.5c1.2,1.7,2,2.9,2.4,3.5c1.3,2,2.3,3.8,3,5.5c0.3,0.8,0.6,1.5,0.8,2.1C41.4,123.8,41.6,125.1,41.6,126.1z
				"/>
			<path class="st3" d="M59.7,136.5c0,2.4-0.6,4.1-1.9,5.1c-0.8,0.7-2,0.8-3.6,0.4c-0.8-0.2-1.8-0.6-2.9-1.3c-2-1.2-3.7-2.6-5-4.4
				c-1.1-1.5-2-3.1-2.6-4.9c-0.6-1.8-1-3.6-1.1-5.5l4.9,2.5c0.2,2.1,0.7,3.9,1.6,5.3c0.6,1,1.3,1.8,2.1,2.2c1.1,0.6,2,0.6,2.7-0.1
				c0.3-0.3,0.5-1,0.5-2c0-1.4-0.6-3.2-1.9-5.4c-1-1.6-2.6-3.9-4.6-7c-1.7-2.7-2.9-4.8-3.6-6.6c-0.8-1.9-1.2-3.8-1.2-5.5
				c0-3.1,1.1-4.9,3.2-5.3c1.3-0.2,2.9,0.2,4.8,1.3c1.8,1.1,3.4,2.4,4.7,4c1,1.2,1.8,2.6,2.5,4.1c0.6,1.5,1,3.1,1.1,4.6l-5-2
				c-0.1-1.5-0.5-2.8-1.2-4c-0.5-0.8-1.2-1.5-2.1-2c-0.9-0.5-1.7-0.5-2.2,0c-0.4,0.4-0.6,1.2-0.6,2.2c0,1.6,0.7,3.6,2,6
				c0.5,0.9,1.3,2.1,2.3,3.5c1.2,1.7,2,2.9,2.4,3.5c1.3,2,2.3,3.8,3,5.5c0.3,0.8,0.6,1.5,0.8,2.1C59.5,134.3,59.7,135.5,59.7,136.5z
				"/>
		</g>
		<polygon class="st4" points="128,37.1 96.1,55.6 64.2,74.2 32.1,55.6 0,37.1 31.9,18.5 63.8,0 95.9,18.5 		"/>
		<g>
			<polygon class="st5" points="42.5,60.7 42.5,84 42.4,83.9 41,81.4 39.7,82.4 39.5,82.3 38.1,79.7 36.7,80.7 36.5,80.6 35.2,78 
				33.8,79 33.6,78.9 32.2,76.3 30.8,77.3 30.7,77.2 29.3,74.6 27.9,75.6 27.7,75.5 26.4,72.9 25,73.9 24.9,73.8 24.9,50.6 
				88.6,14.3 106.6,24.7 			"/>
		</g>
		<g>
			<g>
				<defs>
					<polygon id="SVGID_1_" points="24.6,50.8 41.8,60.4 49.3,72.6 46.4,91.4 15.8,76.8 18.3,58.7 					"/>
				</defs>
				<clipPath id="SVGID_2_">
					<use xlink:href="#SVGID_1_"  style="overflow:visible;"/>
				</clipPath>
				<g class="st6">
					<polygon class="st7" points="42.5,60.7 42.5,84 42.4,83.9 41,81.4 39.7,82.4 39.5,82.3 38.1,79.7 36.7,80.7 36.5,80.6 35.2,78 
						33.8,79 33.6,78.9 32.2,76.3 30.8,77.3 30.7,77.2 29.3,74.7 27.9,75.6 27.7,75.5 26.4,72.9 25,73.9 24.9,73.9 24.9,50.6 
						90.3,12.6 108,22.9 					"/>
				</g>
			</g>
		</g>
		<g>
			<g>
				<g class="st2">
					<g>
						<defs>
							<polygon id="SVGID_3_" points="96.5,80.8 96.5,63.5 121.7,49 121.7,66.3 							"/>
						</defs>
						<clipPath id="SVGID_4_">
							<use xlink:href="#SVGID_3_"  style="overflow:visible;"/>
						</clipPath>
						<g class="st8">
							<g>
								<g>
									<g>
										<path class="st3" d="M106.7,57.6c-3.4,2-6.1,6.7-6.1,10.6c0,0.3,0,0.6,0.1,0.8l-0.1,0c-2.3,1.3-4.1,4.5-4.1,7.1
											s1.8,3.7,4.1,2.3l18.2-10.5c1.6-0.9,2.9-3.2,2.9-5c0-1.8-1.3-2.6-2.9-1.7l0,0c0.2-0.8,0.4-1.5,0.4-2.2
											c0-2.8-2-3.9-4.4-2.5c-0.9,0.5-1.7,1.2-2.3,2.1C111.4,56.7,109.3,56.1,106.7,57.6"/>
									</g>
								</g>
							</g>
						</g>
					</g>
				</g>
			</g>
		</g>
	</g>
</g>
<g id="Layer_4" class="st9">
</g>
</svg>
