<?xml version="1.0" encoding="utf-8"?>
<!-- Generator: Adobe Illustrator 21.1.0, SVG Export Plug-In . SVG Version: 6.00 Build 0)  -->
<svg version="1.1" xmlns="http://www.w3.org/2000/svg" xmlns:xlink="http://www.w3.org/1999/xlink" x="0px" y="0px" width="91.86px"
	 height="91.86px" viewBox="0 0 91.86 91.86" style="enable-background:new 0 0 91.86 91.86;" xml:space="preserve">
<style type="text/css">
	.st0{fill:#1F2628;}
	.st1{fill:none;stroke:#F2F2F2;stroke-miterlimit:10;}
	.st2{fill:url(#SVGID_3_);}
	.st3{opacity:0.8;}
	.st4{fill:none;stroke:#E6E6E6;stroke-miterlimit:10;}
	.st5{fill:#149EDB;}
	.st6{fill:#0DB2F0;}
	.st7{fill:#1ABCFA;}
	.st8{fill:#E4F6FF;}
	.st9{clip-path:url(#SVGID_7_);}
	.st10{fill:#96DEFF;}
	.st11{enable-background:new    ;}
	.st12{clip-path:url(#SVGID_9_);}
	.st13{fill:#FFFFFF;}
	.st14{clip-path:url(#SVGID_11_);}
	.st15{clip-path:url(#SVGID_13_);}
	.st16{fill:#CCE7FF;}
	.st17{fill:none;stroke:#1078FF;stroke-width:4.0909;stroke-linecap:round;stroke-linejoin:round;stroke-miterlimit:10;}
	.st18{fill:none;stroke:#1078FF;stroke-width:4.0909;stroke-linejoin:round;stroke-miterlimit:10;}
	.st19{fill:#319CD6;}
	.st20{fill:#55D8EF;}
	.st21{fill:#B1B4BF;}
	.st22{fill:#D2D6E3;}
	.st23{fill:#F2F4F9;}
	.st24{fill:#3A458F;}
	.st25{fill:#3A2370;}
	.st26{fill:#7E7F7F;}
	.st27{fill:#6F7070;}
	.st28{fill:#CCCCCC;}
	.st29{fill:#BCBBB8;}
	.st30{fill:#70B5E8;}
	.st31{fill:#52A5D8;}
	.st32{fill:#EFEFEF;}
	.st33{fill:#DDDDDD;}
	.st34{fill:#666666;}
	.st35{fill:#535454;}
	.st36{fill:#F94A46;}
	.st37{fill:#FFB70D;}
	.st38{fill:#92B620;}
	.st39{fill:#3094C6;}
	.st40{fill:#F9F9F9;}
	.st41{fill:none;stroke:#FFFFFF;stroke-linecap:round;stroke-linejoin:round;stroke-miterlimit:10;}
	.st42{fill:#00BAFF;}
	.st43{fill:#E0E0E0;}
	.st44{fill:#C0C0C0;}
	.st45{fill:#FF6838;}
	.st46{fill:#AE4E32;}
	.st47{fill:#4D4D4D;}
	.st48{fill:#333333;}
	.st49{fill:#1A1A1A;}
	.st50{fill:#35CCFF;}
	.st51{fill:#8CC63F;}
	.st52{fill:#FFDC00;}
	.st53{fill:#E24242;}
	.st54{fill:#111F35;}
	.st55{fill:#2D3A4C;}
	.st56{fill:#008CC3;}
	.st57{fill:#005C83;}
	.st58{fill:#00263F;}
	.st59{fill:#464655;}
	.st60{fill:#BEC8DC;}
	.st61{fill:#AFBBD0;}
	.st62{fill:#96A5B9;}
	.st63{fill:#E4EAF6;}
	.st64{fill:#FF6469;}
	.st65{fill-rule:evenodd;clip-rule:evenodd;fill:#3C8376;}
	.st66{fill-rule:evenodd;clip-rule:evenodd;fill:#FFFFFF;}
	.st67{fill-rule:evenodd;clip-rule:evenodd;fill:#F48245;}
	.st68{fill-rule:evenodd;clip-rule:evenodd;fill:#C96C38;}
	.st69{fill-rule:evenodd;clip-rule:evenodd;fill:#EDEDED;}
	.st70{fill-rule:evenodd;clip-rule:evenodd;fill:#BBBDBF;}
	.st71{fill-rule:evenodd;clip-rule:evenodd;fill:#2C2D2C;}
	.st72{fill-rule:evenodd;clip-rule:evenodd;fill:#56C4CF;}
	.st73{fill-rule:evenodd;clip-rule:evenodd;fill:#6C8BC6;}
	.st74{fill-rule:evenodd;clip-rule:evenodd;fill:#43525A;}
	.st75{fill-rule:evenodd;clip-rule:evenodd;fill:#D5CB70;}
	.st76{fill-rule:evenodd;clip-rule:evenodd;fill:#FFCA05;}
	.st77{fill-rule:evenodd;clip-rule:evenodd;fill:#929497;}
	.st78{fill-rule:evenodd;clip-rule:evenodd;fill:#A5CD39;}
	.st79{fill-rule:evenodd;clip-rule:evenodd;fill:#47A4AD;}
	.st80{fill-rule:evenodd;clip-rule:evenodd;fill:#7670B2;}
	.st81{fill-rule:evenodd;clip-rule:evenodd;fill:#A37275;}
	.st82{fill-rule:evenodd;clip-rule:evenodd;fill:#EF5B72;}
	.st83{fill-rule:evenodd;clip-rule:evenodd;fill:#F5928C;}
	.st84{fill-rule:evenodd;clip-rule:evenodd;fill:#231F20;}
	.st85{fill-rule:evenodd;clip-rule:evenodd;fill:#58595B;}
	.st86{fill:#67DCEF;}
	.st87{display:none;}
	.st88{display:inline;fill:none;stroke:#1F2628;stroke-width:0.8552;stroke-miterlimit:10;}
</style>
<g id="bmark">
</g>
<g id="bg">
</g>
<g id="Layer_1">
	<g>
		<circle class="st53" cx="45.93" cy="45.93" r="45.93"/>
		<polygon class="st54" points="69.69,52.31 65.2,52.31 65.2,29.16 43.48,29.16 43.48,24.67 69.69,24.67 		"/>
		<polygon class="st55" points="57.99,67.7 20.6,67.7 20.6,44.18 25.09,44.18 25.09,63.22 57.99,63.22 		"/>
		<rect x="45.87" y="63.22" class="st54" width="12.12" height="4.49"/>
		<polygon class="st43" points="41.86,56.2 26.1,56.2 28.37,44.5 39.59,44.5 		"/>
		<polygon class="st44" points="39.59,44.5 33.95,44.5 33.95,56.2 41.86,56.2 		"/>
		<polygon class="st49" points="50.41,44.99 17.55,44.99 14.95,39.86 14.95,18.03 53.01,18.03 53.01,39.88 		"/>
		<rect x="33.95" y="18.04" width="19.06" height="26.96"/>
		<rect x="17.55" y="20.57" class="st50" width="32.86" height="25.56"/>
		<rect x="33.95" y="20.57" class="st42" width="16.46" height="25.56"/>
		<rect x="14.95" y="39.86" class="st13" width="38.06" height="7.77"/>
		<g>
			<rect x="33.95" y="39.86" class="st43" width="19.06" height="7.77"/>
			<circle class="st43" cx="33.98" cy="43.32" r="1.68"/>
		</g>
		<path class="st44" d="M33.98,41.64c-0.01,0-0.02,0-0.03,0v3.35c0.01,0,0.02,0,0.03,0c0.93,0,1.68-0.75,1.68-1.68
			C35.66,42.39,34.91,41.64,33.98,41.64z"/>
		<rect x="55.96" y="39.76" class="st48" width="19.4" height="32.27"/>
		<rect x="65.66" y="39.76" class="st49" width="9.7" height="32.27"/>
		<g>
			<rect id="SVGCleanerId_0_5_" x="58" y="41.73" class="st42" width="15.32" height="25.25"/>
		</g>
		<g>
			<rect id="SVGCleanerId_0_4_" x="58" y="41.73" class="st42" width="15.32" height="25.25"/>
		</g>
		<circle class="st47" cx="65.66" cy="69.35" r="1.44"/>
		<g>
			<rect id="SVGCleanerId_0_3_" x="58" y="41.73" class="st42" width="15.32" height="25.25"/>
		</g>
		<rect x="65.66" y="41.73" class="st56" width="7.66" height="25.25"/>
		<path class="st48" d="M65.66,67.91v2.89c0.8,0,1.45-0.65,1.45-1.45C67.1,68.55,66.45,67.91,65.66,67.91z"/>
	</g>
</g>
<g id="Layer_4" class="st87">
</g>
</svg>
