<?xml version="1.0" encoding="utf-8"?>
<!-- Generator: Adobe Illustrator 21.1.0, SVG Export Plug-In . SVG Version: 6.00 Build 0)  -->
<svg version="1.1" xmlns="http://www.w3.org/2000/svg" xmlns:xlink="http://www.w3.org/1999/xlink" x="0px" y="0px" width="91.86px"
	 height="91.86px" viewBox="0 0 91.86 91.86" style="enable-background:new 0 0 91.86 91.86;" xml:space="preserve">
<style type="text/css">
	.st0{fill:#1F2628;}
	.st1{fill:none;stroke:#F2F2F2;stroke-miterlimit:10;}
	.st2{fill:url(#SVGID_3_);}
	.st3{opacity:0.8;}
	.st4{fill:none;stroke:#E6E6E6;stroke-miterlimit:10;}
	.st5{fill:#149EDB;}
	.st6{fill:#0DB2F0;}
	.st7{fill:#1ABCFA;}
	.st8{fill:#E4F6FF;}
	.st9{clip-path:url(#SVGID_7_);}
	.st10{fill:#96DEFF;}
	.st11{enable-background:new    ;}
	.st12{clip-path:url(#SVGID_9_);}
	.st13{fill:#FFFFFF;}
	.st14{clip-path:url(#SVGID_11_);}
	.st15{clip-path:url(#SVGID_13_);}
	.st16{fill:#CCE7FF;}
	.st17{fill:none;stroke:#1078FF;stroke-width:4.0909;stroke-linecap:round;stroke-linejoin:round;stroke-miterlimit:10;}
	.st18{fill:none;stroke:#1078FF;stroke-width:4.0909;stroke-linejoin:round;stroke-miterlimit:10;}
	.st19{fill:#319CD6;}
	.st20{fill:#55D8EF;}
	.st21{fill:#B1B4BF;}
	.st22{fill:#D2D6E3;}
	.st23{fill:#F2F4F9;}
	.st24{fill:#3A458F;}
	.st25{fill:#3A2370;}
	.st26{fill:#7E7F7F;}
	.st27{fill:#6F7070;}
	.st28{fill:#CCCCCC;}
	.st29{fill:#BCBBB8;}
	.st30{fill:#70B5E8;}
	.st31{fill:#52A5D8;}
	.st32{fill:#EFEFEF;}
	.st33{fill:#DDDDDD;}
	.st34{fill:#666666;}
	.st35{fill:#535454;}
	.st36{fill:#F94A46;}
	.st37{fill:#FFB70D;}
	.st38{fill:#92B620;}
	.st39{fill:#3094C6;}
	.st40{fill:#F9F9F9;}
	.st41{fill:none;stroke:#FFFFFF;stroke-linecap:round;stroke-linejoin:round;stroke-miterlimit:10;}
	.st42{fill:#00BAFF;}
	.st43{fill:#E0E0E0;}
	.st44{fill:#C0C0C0;}
	.st45{fill:#FF6838;}
	.st46{fill:#AE4E32;}
	.st47{fill:#4D4D4D;}
	.st48{fill:#333333;}
	.st49{fill:#1A1A1A;}
	.st50{fill:#35CCFF;}
	.st51{fill:#8CC63F;}
	.st52{fill:#FFDC00;}
	.st53{fill:#E24242;}
	.st54{fill:#111F35;}
	.st55{fill:#2D3A4C;}
	.st56{fill:#008CC3;}
	.st57{fill:#005C83;}
	.st58{fill:#00263F;}
	.st59{fill:#464655;}
	.st60{fill:#BEC8DC;}
	.st61{fill:#AFBBD0;}
	.st62{fill:#96A5B9;}
	.st63{fill:#E4EAF6;}
	.st64{fill:#FF6469;}
	.st65{fill-rule:evenodd;clip-rule:evenodd;fill:#3C8376;}
	.st66{fill-rule:evenodd;clip-rule:evenodd;fill:#FFFFFF;}
	.st67{fill-rule:evenodd;clip-rule:evenodd;fill:#F48245;}
	.st68{fill-rule:evenodd;clip-rule:evenodd;fill:#C96C38;}
	.st69{fill-rule:evenodd;clip-rule:evenodd;fill:#EDEDED;}
	.st70{fill-rule:evenodd;clip-rule:evenodd;fill:#BBBDBF;}
	.st71{fill-rule:evenodd;clip-rule:evenodd;fill:#2C2D2C;}
	.st72{fill-rule:evenodd;clip-rule:evenodd;fill:#56C4CF;}
	.st73{fill-rule:evenodd;clip-rule:evenodd;fill:#6C8BC6;}
	.st74{fill-rule:evenodd;clip-rule:evenodd;fill:#43525A;}
	.st75{fill-rule:evenodd;clip-rule:evenodd;fill:#D5CB70;}
	.st76{fill-rule:evenodd;clip-rule:evenodd;fill:#FFCA05;}
	.st77{fill-rule:evenodd;clip-rule:evenodd;fill:#929497;}
	.st78{fill-rule:evenodd;clip-rule:evenodd;fill:#A5CD39;}
	.st79{fill-rule:evenodd;clip-rule:evenodd;fill:#47A4AD;}
	.st80{fill-rule:evenodd;clip-rule:evenodd;fill:#7670B2;}
	.st81{fill-rule:evenodd;clip-rule:evenodd;fill:#A37275;}
	.st82{fill-rule:evenodd;clip-rule:evenodd;fill:#EF5B72;}
	.st83{fill-rule:evenodd;clip-rule:evenodd;fill:#F5928C;}
	.st84{fill-rule:evenodd;clip-rule:evenodd;fill:#231F20;}
	.st85{fill-rule:evenodd;clip-rule:evenodd;fill:#58595B;}
	.st86{fill:#67DCEF;}
	.st87{display:none;}
	.st88{display:inline;fill:none;stroke:#1F2628;stroke-width:0.8552;stroke-miterlimit:10;}
</style>
<g id="bmark">
</g>
<g id="bg">
</g>
<g id="Layer_1">
	<g>
		<circle class="st42" cx="45.93" cy="45.93" r="45.93"/>
		<path class="st43" d="M72.27,23.26c0-0.01-0.01-0.02-0.01-0.03c-0.05-0.1-0.11-0.2-0.17-0.3c-0.04-0.06-0.08-0.13-0.13-0.19
			c-0.16-0.23-0.35-0.45-0.58-0.67c-0.81-0.81-2.02-1.57-3.56-2.25c-0.09-0.04-0.18-0.08-0.28-0.12
			c-4.84-2.07-12.72-3.43-21.62-3.43c-0.02,0-0.04,0-0.06,0l0,0c-14.69,0.01-26.59,3.7-26.59,8.25v8.6c0,4.55,11.93,8.25,26.65,8.25
			s26.65-3.69,26.65-8.25v-8.6C72.58,24.09,72.48,23.67,72.27,23.26z"/>
		<ellipse class="st13" cx="45.93" cy="24.51" rx="26.65" ry="8.25"/>
		<path class="st43" d="M45.93,16.27c-0.02,0-0.04,0-0.06,0v16.49c0.02,0,0.04,0,0.06,0c14.72,0,26.65-3.69,26.65-8.25
			C72.58,19.96,60.65,16.27,45.93,16.27z"/>
		<path class="st44" d="M45.93,32.76c-0.02,0-0.04,0-0.06,0v8.6c0.02,0,0.04,0,0.06,0c14.72,0,26.65-3.69,26.65-8.25v-8.6
			C72.58,29.07,60.65,32.76,45.93,32.76z"/>
		<path class="st43" d="M19.28,44.73c0,4.55,11.93,8.25,26.65,8.25s26.65-3.69,26.65-8.25v-8.6c0,4.55-11.93,8.25-26.65,8.25
			s-26.65-3.69-26.65-8.25V44.73z"/>
		<path class="st44" d="M45.93,44.37c-0.02,0-0.04,0-0.06,0v8.6c0.02,0,0.04,0,0.06,0c14.72,0,26.65-3.69,26.65-8.25v-8.6
			C72.58,40.68,60.65,44.37,45.93,44.37z"/>
		<path class="st43" d="M19.28,56.34c0,4.55,11.93,8.25,26.65,8.25s26.65-3.69,26.65-8.25v-8.6c0,4.55-11.93,8.25-26.65,8.25
			s-26.65-3.69-26.65-8.25V56.34z"/>
		<path class="st44" d="M45.93,55.98c-0.02,0-0.04,0-0.06,0v8.6c0.02,0,0.04,0,0.06,0c14.72,0,26.65-3.69,26.65-8.25v-8.6
			C72.58,52.29,60.65,55.98,45.93,55.98z"/>
		<path class="st43" d="M19.28,67.95c0,4.55,11.93,8.25,26.65,8.25s26.65-3.69,26.65-8.25v-8.6c0,4.55-11.93,8.25-26.65,8.25
			s-26.65-3.69-26.65-8.25V67.95z"/>
		<path class="st44" d="M45.93,67.59c-0.02,0-0.04,0-0.06,0v8.6c0.02,0,0.04,0,0.06,0c14.72,0,26.65-3.69,26.65-8.25v-8.6
			C72.58,63.9,60.65,67.59,45.93,67.59z"/>
		<path class="st45" d="M37.43,54.23h-5.21v-9.22c0-3.28-2.67-5.96-5.96-5.96c-3.28,0-5.96,2.67-5.96,5.96v9.22h-5.21v-9.22
			c0-6.16,5.01-11.16,11.16-11.16s11.16,5.01,11.16,11.16L37.43,54.23L37.43,54.23z"/>
		<path class="st46" d="M26.27,33.84c-0.05,0-0.1,0-0.15,0v5.21c0.05,0,0.1-0.01,0.15-0.01c3.28,0,5.96,2.67,5.96,5.96v9.22h5.21
			v-9.22C37.43,38.85,32.42,33.84,26.27,33.84z"/>
		<rect x="13.63" y="48.56" class="st47" width="25.29" height="21.1"/>
		<rect x="26.12" y="48.56" class="st48" width="12.79" height="21.1"/>
		<path class="st49" d="M30.27,56.38c0-2.21-1.79-4-4-4s-4,1.79-4,4c0,1.71,1.08,3.17,2.59,3.74v4.79h2.83v-4.79
			C29.2,59.55,30.27,58.09,30.27,56.38z"/>
		<path d="M26.27,52.38c-0.05,0-0.1,0.01-0.15,0.01v12.52h1.57v-4.79c1.51-0.57,2.59-2.03,2.59-3.74
			C30.27,54.17,28.48,52.38,26.27,52.38z"/>
	</g>
</g>
<g id="Layer_4" class="st87">
</g>
</svg>
