<?xml version="1.0" encoding="utf-8"?>
<!-- Generator: Adobe Illustrator 21.1.0, SVG Export Plug-In . SVG Version: 6.00 Build 0)  -->
<svg version="1.1" xmlns="http://www.w3.org/2000/svg" xmlns:xlink="http://www.w3.org/1999/xlink" x="0px" y="0px" width="91.86px"
	 height="91.86px" viewBox="0 0 91.86 91.86" style="enable-background:new 0 0 91.86 91.86;" xml:space="preserve">
<style type="text/css">
	.st0{fill:#1F2628;}
	.st1{fill:none;stroke:#F2F2F2;stroke-miterlimit:10;}
	.st2{fill:url(#SVGID_3_);}
	.st3{opacity:0.8;}
	.st4{fill:none;stroke:#E6E6E6;stroke-miterlimit:10;}
	.st5{fill:#149EDB;}
	.st6{fill:#0DB2F0;}
	.st7{fill:#1ABCFA;}
	.st8{fill:#E4F6FF;}
	.st9{clip-path:url(#SVGID_7_);}
	.st10{fill:#96DEFF;}
	.st11{enable-background:new    ;}
	.st12{clip-path:url(#SVGID_9_);}
	.st13{fill:#FFFFFF;}
	.st14{clip-path:url(#SVGID_11_);}
	.st15{clip-path:url(#SVGID_13_);}
	.st16{fill:#CCE7FF;}
	.st17{fill:none;stroke:#1078FF;stroke-width:4.0909;stroke-linecap:round;stroke-linejoin:round;stroke-miterlimit:10;}
	.st18{fill:none;stroke:#1078FF;stroke-width:4.0909;stroke-linejoin:round;stroke-miterlimit:10;}
	.st19{fill:#319CD6;}
	.st20{fill:#55D8EF;}
	.st21{fill:#B1B4BF;}
	.st22{fill:#D2D6E3;}
	.st23{fill:#F2F4F9;}
	.st24{fill:#3A458F;}
	.st25{fill:#3A2370;}
	.st26{fill:#7E7F7F;}
	.st27{fill:#6F7070;}
	.st28{fill:#CCCCCC;}
	.st29{fill:#BCBBB8;}
	.st30{fill:#70B5E8;}
	.st31{fill:#52A5D8;}
	.st32{fill:#EFEFEF;}
	.st33{fill:#DDDDDD;}
	.st34{fill:#666666;}
	.st35{fill:#535454;}
	.st36{fill:#F94A46;}
	.st37{fill:#FFB70D;}
	.st38{fill:#92B620;}
	.st39{fill:#3094C6;}
	.st40{fill:#F9F9F9;}
	.st41{fill:none;stroke:#FFFFFF;stroke-linecap:round;stroke-linejoin:round;stroke-miterlimit:10;}
	.st42{fill:#00BAFF;}
	.st43{fill:#E0E0E0;}
	.st44{fill:#C0C0C0;}
	.st45{fill:#FF6838;}
	.st46{fill:#AE4E32;}
	.st47{fill:#4D4D4D;}
	.st48{fill:#333333;}
	.st49{fill:#1A1A1A;}
	.st50{fill:#35CCFF;}
	.st51{fill:#8CC63F;}
	.st52{fill:#FFDC00;}
	.st53{fill:#E24242;}
	.st54{fill:#111F35;}
	.st55{fill:#2D3A4C;}
	.st56{fill:#008CC3;}
	.st57{fill:#005C83;}
	.st58{fill:#00263F;}
	.st59{fill:#464655;}
	.st60{fill:#BEC8DC;}
	.st61{fill:#AFBBD0;}
	.st62{fill:#96A5B9;}
	.st63{fill:#E4EAF6;}
	.st64{fill:#FF6469;}
	.st65{fill-rule:evenodd;clip-rule:evenodd;fill:#3C8376;}
	.st66{fill-rule:evenodd;clip-rule:evenodd;fill:#FFFFFF;}
	.st67{fill-rule:evenodd;clip-rule:evenodd;fill:#F48245;}
	.st68{fill-rule:evenodd;clip-rule:evenodd;fill:#C96C38;}
	.st69{fill-rule:evenodd;clip-rule:evenodd;fill:#EDEDED;}
	.st70{fill-rule:evenodd;clip-rule:evenodd;fill:#BBBDBF;}
	.st71{fill-rule:evenodd;clip-rule:evenodd;fill:#2C2D2C;}
	.st72{fill-rule:evenodd;clip-rule:evenodd;fill:#56C4CF;}
	.st73{fill-rule:evenodd;clip-rule:evenodd;fill:#6C8BC6;}
	.st74{fill-rule:evenodd;clip-rule:evenodd;fill:#43525A;}
	.st75{fill-rule:evenodd;clip-rule:evenodd;fill:#D5CB70;}
	.st76{fill-rule:evenodd;clip-rule:evenodd;fill:#FFCA05;}
	.st77{fill-rule:evenodd;clip-rule:evenodd;fill:#929497;}
	.st78{fill-rule:evenodd;clip-rule:evenodd;fill:#A5CD39;}
	.st79{fill-rule:evenodd;clip-rule:evenodd;fill:#47A4AD;}
	.st80{fill-rule:evenodd;clip-rule:evenodd;fill:#7670B2;}
	.st81{fill-rule:evenodd;clip-rule:evenodd;fill:#A37275;}
	.st82{fill-rule:evenodd;clip-rule:evenodd;fill:#EF5B72;}
	.st83{fill-rule:evenodd;clip-rule:evenodd;fill:#F5928C;}
	.st84{fill-rule:evenodd;clip-rule:evenodd;fill:#231F20;}
	.st85{fill-rule:evenodd;clip-rule:evenodd;fill:#58595B;}
	.st86{fill:#67DCEF;}
	.st87{display:none;}
	.st88{display:inline;fill:none;stroke:#1F2628;stroke-width:0.8552;stroke-miterlimit:10;}
</style>
<g id="bmark">
</g>
<g id="bg">
</g>
<g id="Layer_1">
	<g>
		<circle class="st50" cx="45.93" cy="45.93" r="45.93"/>
		<path class="st13" d="M58.28,59.56c8.9,0,16.12-7.22,16.12-16.12c0-8.34-6.33-15.19-14.44-16.03
			c-2.79-6.53-9.27-11.11-16.82-11.11c-9.55,0-17.39,7.33-18.21,16.67c-0.42-0.04-0.84-0.06-1.26-0.06
			c-7.36,0-13.33,5.97-13.33,13.33s5.97,13.33,13.33,13.33L58.28,59.56L58.28,59.56L58.28,59.56z"/>
		<path class="st43" d="M59.96,27.41c-2.79-6.53-9.27-11.11-16.82-11.11c-0.09,0-0.17,0-0.26,0v43.26h15.4
			c8.9,0,16.12-7.22,16.12-16.12C74.4,35.11,68.07,28.25,59.96,27.41z"/>
		<rect x="37.21" y="40.24" class="st48" width="38.89" height="9.87"/>
		<rect x="56.4" y="40.24" class="st49" width="19.71" height="9.87"/>
		<rect x="69.18" y="43.37" class="st51" width="3.6" height="3.6"/>
		<rect x="64.18" y="43.37" class="st52" width="3.6" height="3.6"/>
		<rect x="37.21" y="52.08" class="st48" width="38.89" height="9.87"/>
		<rect x="56.4" y="52.08" class="st49" width="19.71" height="9.87"/>
		<rect x="69.18" y="55.21" class="st51" width="3.6" height="3.6"/>
		<rect x="64.18" y="55.21" class="st52" width="3.6" height="3.6"/>
		<rect x="37.21" y="63.93" class="st48" width="38.89" height="9.87"/>
		<rect x="56.4" y="63.93" class="st49" width="19.71" height="9.87"/>
		<rect x="69.18" y="67.06" class="st51" width="3.6" height="3.6"/>
		<rect x="64.18" y="67.06" class="st52" width="3.6" height="3.6"/>
	</g>
</g>
<g id="Layer_4" class="st87">
</g>
</svg>
